<svg width="6" height="11" viewBox="0 0 6 11" fill="none" xmlns="http://www.w3.org/2000/svg">
<path fill-rule="evenodd" clip-rule="evenodd" d="M0.646742 1.10328C0.679399 1.07054 0.718194 1.04457 0.760905 1.02685C0.803617 1.00912 0.849405 1 0.895648 1C0.94189 1 0.987679 1.00912 1.03039 1.02685C1.0731 1.04457 1.1119 1.07054 1.14455 1.10328L5.3633 5.32203C5.39604 5.35469 5.42202 5.39349 5.43974 5.4362C5.45747 5.47891 5.46659 5.5247 5.46659 5.57094C5.46659 5.61718 5.45747 5.66297 5.43974 5.70568C5.42202 5.74839 5.39604 5.78719 5.3633 5.81985L1.14455 10.0386C1.07854 10.1046 0.989006 10.1417 0.895648 10.1417C0.80229 10.1417 0.712756 10.1046 0.646742 10.0386C0.580727 9.97258 0.543641 9.88305 0.543641 9.78969C0.543641 9.69633 0.580727 9.6068 0.646742 9.54078L4.61729 5.57094L0.646742 1.6011C0.614002 1.56844 0.588026 1.52964 0.570303 1.48693C0.55258 1.44422 0.543457 1.39843 0.543457 1.35219C0.543457 1.30595 0.55258 1.26016 0.570303 1.21745C0.588026 1.17474 0.614002 1.13594 0.646742 1.10328Z" fill="#3C4852" stroke="#3C4852" stroke-width="1.05469"/>
</svg>
