<svg width="60" height="61" viewBox="0 0 60 61" fill="none" xmlns="http://www.w3.org/2000/svg">
<path d="M4.97778 29.3303C4.97797 22.749 7.57093 16.4328 12.195 11.7497C16.8191 7.06656 23.102 4.39372 29.6827 4.31008L29.6577 4.28507L48.2291 4.13721C48.2291 4.13721 54.8025 4.26061 54.8025 11.4162C54.8025 15.9923 54.8677 22.7363 54.915 27.0048C54.9857 27.7709 55.0219 28.5461 55.0237 29.3303C55.0237 32.6164 54.3765 35.8703 53.119 38.9062C51.8614 41.9421 50.0183 44.7006 47.6947 47.0242C45.3711 49.3478 42.6126 51.191 39.5766 52.4485C36.5407 53.7061 33.2868 54.3533 30.0008 54.3533C26.7147 54.3533 23.4608 53.7061 20.4249 52.4485C17.3889 51.191 14.6304 49.3478 12.3068 47.0242C9.98324 44.7006 8.14006 41.9421 6.88254 38.9062C5.62502 35.8703 4.97778 32.6164 4.97778 29.3303Z" fill="#1D65FF"/>
<path d="M36.5877 36.3403L30.6961 33.8152C30.3885 33.6829 30.0526 33.6296 29.7191 33.6602C29.3857 33.6909 29.0652 33.8046 28.7869 33.9908L25.6367 36.0919C23.7115 35.1555 22.1533 33.6042 21.2084 31.6832L23.3008 28.4857C23.4827 28.208 23.5931 27.8897 23.6221 27.5591C23.6512 27.2284 23.5979 26.8957 23.4671 26.5906L20.9399 20.6925C20.7678 20.2923 20.4707 19.9586 20.0932 19.7413C19.7156 19.5241 19.2778 19.4349 18.8453 19.4873C17.1457 19.7057 15.5838 20.5355 14.4514 21.8215C13.3189 23.1075 12.6934 24.7618 12.6917 26.4754C12.6971 31.2777 14.6073 35.8818 18.0031 39.2775C21.3989 42.6732 26.003 44.5832 30.8053 44.5885C32.5189 44.5868 34.1732 43.9613 35.4592 42.8288C36.7452 41.6963 37.575 40.1344 37.7934 38.4348C37.8457 38.0023 37.7564 37.5645 37.5391 37.187C37.3217 36.8094 36.9879 36.5124 36.5877 36.3403Z" fill="white"/>
<path d="M43.6736 29.9344C43.5736 29.9344 43.4992 29.9344 43.4313 29.9344C41.7461 29.904 39.458 29.8888 36.6242 29.8888C31.8285 29.8888 26.9864 29.9339 26.9478 29.9344V17.9277C27.0798 17.1884 27.385 16.4907 27.8383 15.8919C28.2829 15.3001 28.8601 14.8207 29.5235 14.4925C30.4672 14.0487 31.5012 13.831 32.5437 13.8565H43.4334C43.4503 13.8565 43.4941 13.8565 43.5643 13.8565C44.3927 13.8565 48.5302 14.1214 48.6232 19.3531C48.7243 25.129 48.6232 26.5647 48.6232 26.5783C48.6519 26.931 48.6099 27.2859 48.4992 27.622C48.3886 27.9581 48.2116 28.2684 47.979 28.5351C47.1723 29.4597 45.7247 29.9344 43.6736 29.9344ZM31.2369 23.4483C31.0126 23.4486 30.7975 23.5375 30.6389 23.6962C30.4803 23.8549 30.3911 24.0701 30.391 24.2945C30.3911 24.5188 30.4803 24.7341 30.6389 24.8928C30.7975 25.0514 31.0126 25.1404 31.2369 25.1407H39.7396C39.9639 25.1404 40.1788 25.0514 40.3374 24.8928C40.4959 24.7341 40.5851 24.5188 40.5853 24.2945C40.5851 24.0701 40.4959 23.8549 40.3374 23.6962C40.1788 23.5375 39.9639 23.4486 39.7396 23.4483H31.2369ZM31.2369 19.3584C31.0126 19.3587 30.7975 19.4482 30.6389 19.6069C30.4803 19.7656 30.3911 19.9803 30.391 20.2046C30.3911 20.429 30.4803 20.6443 30.6389 20.8029C30.7975 20.9616 31.0126 21.0511 31.2369 21.0514H44.3733C44.5977 21.0512 44.8129 20.9616 44.9716 20.8029C45.1303 20.6442 45.2194 20.4291 45.2195 20.2046C45.2194 19.9802 45.1303 19.7651 44.9716 19.6064C44.8129 19.4477 44.5977 19.3586 44.3733 19.3584H31.2369Z" fill="white"/>
</svg>
