<svg width="13" height="16" viewBox="0 0 13 16" fill="none" xmlns="http://www.w3.org/2000/svg">
<path fill-rule="evenodd" clip-rule="evenodd" d="M4.08702 3.53234C4.11968 3.4996 4.15847 3.47363 4.20118 3.4559C4.24389 3.43818 4.28968 3.42906 4.33592 3.42906C4.38217 3.42906 4.42796 3.43818 4.47067 3.4559C4.51338 3.47363 4.55217 3.4996 4.58483 3.53234L8.80358 7.75109C8.83632 7.78375 8.8623 7.82255 8.88002 7.86526C8.89774 7.90797 8.90687 7.95376 8.90687 8C8.90687 8.04624 8.89774 8.09203 8.88002 8.13474C8.8623 8.17745 8.83632 8.21625 8.80358 8.24891L4.58483 12.4677C4.51882 12.5337 4.42928 12.5708 4.33592 12.5708C4.24257 12.5708 4.15303 12.5337 4.08702 12.4677C4.021 12.4016 3.98392 12.3121 3.98392 12.2187C3.98392 12.1254 4.021 12.0359 4.08702 11.9698L8.05757 8L4.08702 4.03016C4.05428 3.9975 4.0283 3.9587 4.01058 3.91599C3.99286 3.87328 3.98373 3.82749 3.98373 3.78125C3.98373 3.73501 3.99286 3.68922 4.01058 3.64651C4.0283 3.6038 4.05428 3.565 4.08702 3.53234Z" fill="#3C4852" stroke="#3C4852" stroke-width="1.05469"/>
</svg>
