<svg width="12" height="16" viewBox="0 0 12 16" fill="none" xmlns="http://www.w3.org/2000/svg">
<path fill-rule="evenodd" clip-rule="evenodd" d="M3.64659 3.53234C3.67925 3.4996 3.71804 3.47363 3.76075 3.4559C3.80346 3.43818 3.84925 3.42906 3.8955 3.42906C3.94174 3.42906 3.98753 3.43818 4.03024 3.4559C4.07295 3.47363 4.11174 3.4996 4.1444 3.53234L8.36315 7.75109C8.39589 7.78375 8.42187 7.82255 8.43959 7.86526C8.45731 7.90797 8.46644 7.95376 8.46644 8C8.46644 8.04624 8.45731 8.09203 8.43959 8.13474C8.42187 8.17745 8.39589 8.21625 8.36315 8.24891L4.1444 12.4677C4.07839 12.5337 3.98885 12.5708 3.8955 12.5708C3.80214 12.5708 3.7126 12.5337 3.64659 12.4677C3.58057 12.4016 3.54349 12.3121 3.54349 12.2187C3.54349 12.1254 3.58057 12.0359 3.64659 11.9698L7.61714 8L3.64659 4.03016C3.61385 3.9975 3.58787 3.9587 3.57015 3.91599C3.55243 3.87328 3.5433 3.82749 3.5433 3.78125C3.5433 3.73501 3.55243 3.68922 3.57015 3.64651C3.58787 3.6038 3.61385 3.565 3.64659 3.53234Z" fill="#3C4852" stroke="#3C4852" stroke-width="1.05469"/>
</svg>
